<?xml version="1.0" encoding="utf-8"?><svg xml:space="preserve" viewBox="0 0 100 100" y="0px" x="0px" xmlns:xlink="http://www.w3.org/1999/xlink" xmlns="http://www.w3.org/2000/svg" id="圖層_1" version="1.1" width="200px" height="200px" style="width:100%;height:100%;background-size:initial;background-repeat-y:initial;background-repeat-x:initial;background-position-y:initial;background-position-x:initial;background-origin:initial;background-color:initial;background-clip:initial;background-attachment:initial;animation-play-state:paused" ><g class="ldl-scale" style="transform-origin:50% 50%;transform:rotate(0deg) scale(0.8, 0.8);animation-play-state:paused" ><g style="animation-play-state:paused" ><path d="M61.15,31.28c10.8-3.06,11.88-4.08,11.88-4.08l-1.08-8.16L79.51,17" stroke-miterlimit="10" stroke-linejoin="round" stroke-linecap="round" stroke-width="3" stroke="#000000" fill="none" style="animation-play-state:paused" ></path>
<path d="M65.09,48.44C80.36,48.26,82.2,48.9,82.2,48.9l2.15,7.81L95,56.49" stroke-miterlimit="10" stroke-linejoin="round" stroke-linecap="round" stroke-width="3" stroke="#000000" fill="none" style="animation-play-state:paused" ></path>
<path d="M65.09,65.76c16.36,6.49,17.76,8.07,17.76,8.07l-4.5,10.19l11.48,4.42" stroke-miterlimit="10" stroke-linejoin="round" stroke-linecap="round" stroke-width="3" stroke="#000000" fill="none" style="animation-play-state:paused" ></path>
<path d="M20.49,17l7.56,2.04l-1.08,8.16c0,0,1.08,1.02,11.88,4.08" stroke-miterlimit="10" stroke-linejoin="round" stroke-linecap="round" stroke-width="3" stroke="#000000" fill="none" style="animation-play-state:paused" ></path>
<path d="M5,56.49l10.65,0.22l2.15-7.81c0,0,1.84-0.64,17.11-0.46" stroke-miterlimit="10" stroke-linejoin="round" stroke-linecap="round" stroke-width="3" stroke="#000000" fill="none" style="animation-play-state:paused" ></path>
<path d="M10.17,88.44l11.48-4.42l-4.5-10.19c0,0,1.4-1.57,17.76-8.07" stroke-miterlimit="10" stroke-linejoin="round" stroke-linecap="round" stroke-width="3" stroke="#000000" fill="none" style="animation-play-state:paused" ></path>
<g style="animation-play-state:paused" ><circle r="12.31" cy="27.86" cx="50.45" stroke-miterlimit="10" stroke-width="3" stroke="#000000" style="animation-play-state:paused" ></circle>
<ellipse ry="11.33" rx="15.27" cy="37.71" cx="50.45" stroke-miterlimit="10" stroke-width="3" stroke="#000000" style="animation-play-state:paused" ></ellipse>
<g style="animation-play-state:paused" ><g style="animation-play-state:paused" ><line y2="20.96" x2="42.54" y1="13.22" x1="38.46" stroke-miterlimit="10" stroke-width="3" stroke="#000000" fill="none" style="animation-play-state:paused" ></line></g>
<ellipse ry="1.78" rx="1.47" cy="11.83" cx="37.93" stroke-miterlimit="10.0003" stroke-width="3.0001" stroke="#000000" transform="matrix(0.939 -0.344 0.344 0.939 -1.7554 13.7685)" style="animation-play-state:paused" ></ellipse></g>
<g style="animation-play-state:paused" ><g style="animation-play-state:paused" ><line y2="20.96" x2="58.08" y1="13.22" x1="62.17" stroke-miterlimit="10" stroke-width="3" stroke="#000000" fill="none" style="animation-play-state:paused" ></line></g>
<ellipse ry="1.47" rx="1.78" cy="11.83" cx="62.7" stroke-miterlimit="10.0003" stroke-width="3.0001" stroke="#000000" transform="matrix(0.344 -0.939 0.939 0.344 30.0185 66.636)" style="animation-play-state:paused" ></ellipse></g></g>
<path d="M50.55,31.21c-0.03,0-0.06,0-0.09,0 C39.93,31.2,31.3,44.23,31.17,60.37c-0.13,16.14,8.28,29.31,18.82,29.47c0.03,0,0.06,0,0.09,0c10.57,0.09,19.25-12.97,19.39-29.16 C69.59,44.49,61.13,31.3,50.55,31.21z" stroke-miterlimit="10" stroke-width="3" stroke="#000000" style="animation-play-state:paused" ></path></g>
<g style="animation-play-state:paused" ><path d="M50.18,31.29 C34.53,31.36,21.86,44.46,21.86,60.6c0,16.14,12.67,29.24,28.32,29.31V89.4V31.29z" stroke-miterlimit="10" stroke-width="3" stroke="#000000" fill="#C33636" style="fill:rgb(195, 54, 54);animation-play-state:paused" ></path>
<circle r="3.93" cy="50.01" cx="35.17" style="animation-play-state:paused" ></circle>
<circle r="3.93" cy="70.7" cx="32.21" style="animation-play-state:paused" ></circle>
<circle r="5.41" cy="61.34" cx="41.45" style="animation-play-state:paused" ></circle>
<path d="M44.91,42.62c0,2.99,2.42,5.41,5.41,5.41V37.22C47.33,37.22,44.91,39.64,44.91,42.62z" style="animation-play-state:paused" ></path></g>
<g style="animation-play-state:paused" ><path d="M78.76,60.6c0-16.19-12.74-29.32-28.45-29.32 c-0.04,0-0.09,0-0.13,0V89.4v0.51c0.04,0,0.09,0,0.13,0C66.02,89.92,78.76,76.79,78.76,60.6z" stroke-miterlimit="10" stroke-width="3" stroke="#000000" fill="#C33636" style="fill:rgb(195, 54, 54);animation-play-state:paused" ></path>
<circle r="3.93" cy="70.7" cx="69.64" style="animation-play-state:paused" ></circle>
<circle r="3.93" cy="50.01" cx="65.7" style="animation-play-state:paused" ></circle>
<circle r="5.41" cy="61.34" cx="59.18" style="animation-play-state:paused" ></circle>
<path d="M55.72,42.62c0-2.99-2.42-5.41-5.41-5.41v10.81C53.3,48.03,55.72,45.61,55.72,42.62z" style="animation-play-state:paused" ></path></g>
<metadata xmlns:d="https://loading.io/stock/" style="animation-play-state:paused" ><d:name style="animation-play-state:paused" >insect</d:name>


<d:tags style="animation-play-state:paused" >insect,bug,animal,biology,beetle,ladybug</d:tags>


<d:license style="animation-play-state:paused" >by</d:license>


<d:slug style="animation-play-state:paused" >5h8n65</d:slug></metadata></g><!-- generated by https://loading.io/ --></svg>